<svg width="19" height="19" viewBox="0 0 19 19" fill="none" xmlns="http://www.w3.org/2000/svg">
<path d="M17.4068 13.2674V15.7674C17.4077 15.9995 17.3602 16.2292 17.2672 16.4419C17.1743 16.6545 17.0379 16.8454 16.8669 17.0023C16.6959 17.1592 16.4939 17.2786 16.2741 17.353C16.0542 17.4273 15.8213 17.455 15.5901 17.4341C13.0258 17.1554 10.5626 16.2792 8.39847 14.8757C6.38499 13.5963 4.67792 11.8892 3.39847 9.87573C1.99012 7.70174 1.11367 5.22656 0.840138 2.65073C0.819313 2.42029 0.8467 2.18803 0.920555 1.96875C0.99441 1.74947 1.11311 1.54797 1.26911 1.37708C1.42511 1.20619 1.61498 1.06966 1.82663 0.976167C2.03829 0.882677 2.26709 0.834283 2.49847 0.834065H4.99847C5.40289 0.830085 5.79496 0.973297 6.10161 1.23701C6.40825 1.50072 6.60854 1.86694 6.66514 2.2674C6.77066 3.06745 6.96635 3.853 7.24847 4.60907C7.36059 4.90733 7.38486 5.23149 7.31839 5.54313C7.25193 5.85477 7.09752 6.14082 6.87347 6.3674L5.81514 7.42573C7.00143 9.51202 8.72885 11.2394 10.8151 12.4257L11.8735 11.3674C12.1 11.1433 12.3861 10.9889 12.6977 10.9225C13.0094 10.856 13.3335 10.8803 13.6318 10.9924C14.3879 11.2745 15.1734 11.4702 15.9735 11.5757C16.3783 11.6328 16.748 11.8367 17.0122 12.1486C17.2765 12.4606 17.4169 12.8587 17.4068 13.2674Z" stroke="currentColor" stroke-width="1.66667" stroke-linecap="round" stroke-linejoin="round"/>
</svg>
