<svg width="16" height="16" viewBox="0 0 16 16" fill="none" xmlns="http://www.w3.org/2000/svg">
<path d="M9.66671 2.66602H6.33337L4.66671 4.66602H2.66671C2.31309 4.66602 1.97395 4.80649 1.7239 5.05654C1.47385 5.30659 1.33337 5.64573 1.33337 5.99935V11.9993C1.33337 12.353 1.47385 12.6921 1.7239 12.9422C1.97395 13.1922 2.31309 13.3327 2.66671 13.3327H13.3334C13.687 13.3327 14.0261 13.1922 14.2762 12.9422C14.5262 12.6921 14.6667 12.353 14.6667 11.9993V5.99935C14.6667 5.64573 14.5262 5.30659 14.2762 5.05654C14.0261 4.80649 13.687 4.66602 13.3334 4.66602H11.3334L9.66671 2.66602Z" stroke="white" stroke-width="1.33333" stroke-linecap="round" stroke-linejoin="round"/>
<path d="M8 10.666C9.10457 10.666 10 9.77059 10 8.66602C10 7.56145 9.10457 6.66602 8 6.66602C6.89543 6.66602 6 7.56145 6 8.66602C6 9.77059 6.89543 10.666 8 10.666Z" stroke="white" stroke-width="1.33333" stroke-linecap="round" stroke-linejoin="round"/>
</svg>
