<svg width="16" height="16" viewBox="0 0 16 16" fill="none" xmlns="http://www.w3.org/2000/svg">
<path d="M10.0001 1.33398H4.00008C3.64646 1.33398 3.30732 1.47446 3.05727 1.72451C2.80722 1.97456 2.66675 2.3137 2.66675 2.66732V13.334C2.66675 13.6876 2.80722 14.0267 3.05727 14.2768C3.30732 14.5268 3.64646 14.6673 4.00008 14.6673H12.0001C12.3537 14.6673 12.6928 14.5268 12.9429 14.2768C13.1929 14.0267 13.3334 13.6876 13.3334 13.334V4.66732L10.0001 1.33398Z" stroke="#0A0A0A" stroke-width="1.33333" stroke-linecap="round" stroke-linejoin="round"/>
<path d="M9.33325 1.33398V4.00065C9.33325 4.35427 9.47373 4.69341 9.72378 4.94346C9.97383 5.19351 10.313 5.33398 10.6666 5.33398H13.3333" stroke="#0A0A0A" stroke-width="1.33333" stroke-linecap="round" stroke-linejoin="round"/>
<path d="M6.66659 6H5.33325" stroke="#0A0A0A" stroke-width="1.33333" stroke-linecap="round" stroke-linejoin="round"/>
<path d="M10.6666 8.66602H5.33325" stroke="#0A0A0A" stroke-width="1.33333" stroke-linecap="round" stroke-linejoin="round"/>
<path d="M10.6666 11.334H5.33325" stroke="#0A0A0A" stroke-width="1.33333" stroke-linecap="round" stroke-linejoin="round"/>
</svg>
