<svg width="63" height="31" viewBox="0 0 63 31" fill="none" xmlns="http://www.w3.org/2000/svg">
<path d="M14.3025 10.7825C14.3025 10.9919 14.2957 11.1972 14.2836 11.3942C14.2715 11.5912 14.2296 11.8502 14.1608 12.1726C14.0907 12.4937 13.999 12.7899 13.8856 13.0599C13.7723 13.3286 13.6037 13.6124 13.3824 13.9073C13.1612 14.2035 12.8981 14.4501 12.5933 14.6471C12.2897 14.8442 11.9025 15.0081 11.4344 15.1404C10.965 15.2713 10.4402 15.3374 9.85741 15.3374H5.23021C4.88891 15.3374 4.61101 15.0494 4.61101 14.6954V12.8863H4.6137C5.32869 12.8863 6.2285 12.8863 7.17148 12.885H9.98287C10.3431 12.885 10.6142 12.7003 10.7491 12.3669C10.8827 12.039 10.8193 11.7152 10.5697 11.4548C9.68608 10.5345 8.79302 9.61136 7.96066 8.74887C7.7691 8.55047 7.53032 8.46918 7.26996 8.51327C6.95293 8.56838 6.73304 8.75989 6.63186 9.06852C6.52799 9.38954 6.59679 9.68714 6.83017 9.93101C7.17148 10.2865 7.51548 10.6419 7.87433 11.0112L8.06994 11.2151H4.61101L4.60966 6.69047C4.61101 6.33638 4.88756 6.0498 5.22752 6.0498H9.85471C11.1093 6.0498 12.1643 6.47416 13.0182 7.32149C13.8748 8.1702 14.3025 9.32341 14.3025 10.7825Z" fill="#3C67B1"/>
<path d="M14.3025 20.3952C14.3025 20.6047 14.2957 20.8099 14.2836 21.007C14.2715 21.204 14.2296 21.463 14.1608 21.7854C14.0907 22.1064 13.999 22.4026 13.8856 22.6727C13.7723 22.9414 13.6037 23.2252 13.3824 23.52C13.1612 23.8163 12.8981 24.0629 12.5933 24.2599C12.2897 24.4569 11.9025 24.6209 11.4344 24.7531C10.965 24.884 10.4402 24.9502 9.85741 24.9502H5.23021C4.88891 24.9502 4.61101 24.6622 4.61101 24.3081V23.3905L4.60966 16.3046C4.61101 15.9505 4.88756 15.6639 5.22752 15.6639H9.85471C11.1093 15.6639 12.1643 16.0883 13.0182 16.9356C13.3851 17.3007 13.6752 17.721 13.8843 18.1977C13.2327 18.1977 12.426 18.1977 11.5734 18.1991H8.49758C8.13739 18.1991 7.86623 18.3823 7.72998 18.7171C7.59777 19.045 7.66118 19.3702 7.9094 19.6292C8.78627 20.5427 9.68069 21.4699 10.5171 22.3351C10.6749 22.4991 10.8638 22.5831 11.0702 22.5831C11.1161 22.5831 11.1606 22.579 11.2078 22.5707C11.5248 22.5156 11.7447 22.3241 11.8459 22.0141C11.9498 21.6945 11.881 21.3969 11.6476 21.153C11.3063 20.7962 10.9623 20.4421 10.6021 20.0714L10.4078 19.8689H14.2822C14.2957 20.0384 14.3025 20.2147 14.3025 20.3952Z" fill="#3C67B1"/>
<path d="M16.5608 6.04572H19.8821C21.7627 6.04572 22.6948 7.02531 22.6948 8.34936C22.6948 9.42954 22.0257 10.0371 21.1785 10.2397V10.3265C22.1026 10.3747 23.0335 11.1642 23.0335 12.5075C23.0335 13.8908 22.0594 14.9282 20.0723 14.9282H16.5608V6.04572ZM19.6865 9.8222C20.504 9.8222 21.1232 9.33585 21.1232 8.55603C21.1232 7.87127 20.6443 7.37251 19.7216 7.37251H18.1324V9.82358H19.6865V9.8222ZM19.8227 13.5835C20.9627 13.5835 21.4362 13.0889 21.4362 12.3821C21.4362 11.5885 20.8345 10.9809 19.8646 10.9809H18.1324V13.5835H19.8227Z" fill="#F26727"/>
<path d="M25.3889 14.9269H23.855V6.04572H25.3551V9.39785H25.4307C25.7315 8.64283 26.3669 8.17852 27.3666 8.17852C28.7183 8.17852 29.6073 9.07683 29.6073 10.6847V14.9269H28.0734V10.9286C28.0734 10.0302 27.5986 9.50532 26.7946 9.50532C25.973 9.50532 25.3875 10.0606 25.3875 11.0236V14.9269H25.3889Z" fill="#F26727"/>
<path d="M30.3844 13.0586C30.3844 11.5582 31.5917 11.1724 32.8544 11.0332C34.0025 10.9079 34.4638 10.8858 34.4638 10.4353V10.4091C34.4638 9.75467 34.074 9.38129 33.363 9.38129C32.613 9.38129 32.1813 9.7712 32.0288 10.2272L30.5975 10.0192C30.9361 8.80538 31.987 8.17987 33.3549 8.17987C34.596 8.17987 35.999 8.70894 35.999 10.4697V14.9282H34.5245V14.0134H34.4733C34.194 14.5728 33.5843 15.0632 32.563 15.0632C31.3206 15.0619 30.3844 14.3675 30.3844 13.0586ZM34.4679 12.5378V11.7524C34.2682 11.9178 33.4642 12.0211 33.0622 12.0776C32.3755 12.1768 31.8629 12.4289 31.8629 13.0324C31.8629 13.6097 32.3202 13.9087 32.9597 13.9087C33.8838 13.9087 34.4679 13.279 34.4679 12.5378Z" fill="#F26727"/>
<path d="M37.0661 8.26529H38.5528V9.37578H38.6202C38.8577 8.60423 39.4809 8.17023 40.2256 8.17023C40.3956 8.17023 40.637 8.18814 40.776 8.21294V9.65823C40.6451 9.61552 40.3227 9.56729 40.0637 9.56729C39.2205 9.56729 38.5973 10.1652 38.5973 11.0112V14.9282H37.0634V8.26529H37.0661Z" fill="#F26727"/>
<path d="M40.892 13.0586C40.892 11.5582 42.0994 11.1724 43.3621 11.0332C44.5101 10.9079 44.9715 10.8858 44.9715 10.4353V10.4091C44.9715 9.75467 44.5816 9.38129 43.8707 9.38129C43.1206 9.38129 42.6889 9.7712 42.5365 10.2272L41.1051 10.0192C41.4438 8.80538 42.4947 8.17987 43.8626 8.17987C45.1037 8.17987 46.5067 8.70894 46.5067 10.4697V14.9282H45.0308V14.0134H44.9796C44.7003 14.5728 44.0906 15.0632 43.0693 15.0632C41.8282 15.0619 40.892 14.3675 40.892 13.0586ZM44.9755 12.5378V11.7524C44.7759 11.9178 43.9718 12.0211 43.5698 12.0776C42.8832 12.1768 42.3705 12.4289 42.3705 13.0324C42.3705 13.6097 42.8279 13.9087 43.4673 13.9087C44.3914 13.9087 44.9755 13.279 44.9755 12.5378Z" fill="#F26727"/>
<path d="M50.8236 9.48053H49.5407V12.9236C49.5407 13.5574 49.8496 13.6951 50.2354 13.6951C50.4256 13.6951 50.5997 13.6566 50.6846 13.6345L50.9437 14.8621C50.7791 14.9186 50.4782 15.0054 50.0412 15.0178C48.8891 15.0523 47.9987 14.4364 48.0082 13.1826V9.48053H47.0841V8.26671H48.0082V6.66986H49.542V8.26533H50.8249V9.48053H50.8236Z" fill="#F26727"/>
<path d="M22.4115 19.0946C22.2375 18.082 21.451 17.5005 20.4473 17.5005C19.0956 17.5005 18.1432 18.5628 18.1432 20.471C18.1432 22.4123 19.1037 23.4415 20.4433 23.4415C21.4321 23.4415 22.2227 22.8835 22.4115 21.8929L23.9211 21.9012C23.6904 23.5159 22.3886 24.8179 20.4231 24.8179C18.2444 24.8179 16.639 23.2032 16.639 20.4724C16.639 17.7375 18.2646 16.1269 20.4231 16.1269C22.2551 16.1269 23.6675 17.2181 23.9211 19.0974H22.4115V19.0946Z" fill="#F26727"/>
<path d="M24.5107 21.5526C24.5107 19.5865 25.6641 18.2721 27.4799 18.2721C29.2957 18.2721 30.4491 19.5865 30.4491 21.5526C30.4491 23.5145 29.2957 24.8248 27.4799 24.8248C25.6641 24.8248 24.5107 23.5145 24.5107 21.5526ZM28.9679 21.5485C28.9679 20.387 28.4755 19.4584 27.4866 19.4584C26.4816 19.4584 25.9892 20.3884 25.9892 21.5485C25.9892 22.7085 26.4816 23.6261 27.4866 23.6261C28.4755 23.6261 28.9679 22.7085 28.9679 21.5485Z" fill="#F26727"/>
<path d="M32.6899 24.6994H31.2289V18.3548H32.6251V19.4336H32.698C32.9799 18.7268 33.618 18.2721 34.5461 18.2721C35.825 18.2721 36.6722 19.1401 36.6682 20.6598V24.6994H35.2072V20.8913C35.2072 20.0439 34.7552 19.5369 34.0011 19.5369C33.2308 19.5369 32.6899 20.066 32.6899 20.9822V24.6994Z" fill="#F26727"/>
<path d="M39.1612 24.6994H37.7002V18.3548H39.0964V19.4336H39.1693C39.4512 18.7268 40.0893 18.2721 41.0174 18.2721C42.2963 18.2721 43.1435 19.1401 43.1395 20.6598V24.6994H41.6785V20.8913C41.6785 20.0439 41.2265 19.5369 40.4724 19.5369C39.7021 19.5369 39.1612 20.066 39.1612 20.9822V24.6994Z" fill="#F26727"/>
<path d="M43.9071 21.565C43.9071 19.6072 45.0646 18.2721 46.8399 18.2721C48.3657 18.2721 49.6729 19.2517 49.6729 21.4782V21.937H45.356C45.3681 23.0241 45.994 23.6592 46.937 23.6592C47.567 23.6592 48.05 23.3781 48.2483 22.8408L49.6122 22.9979C49.3545 24.1015 48.3616 24.8234 46.9168 24.8234C45.0497 24.8234 43.9071 23.5559 43.9071 21.565ZM48.2726 20.9285C48.2645 20.0646 47.6992 19.4377 46.8601 19.4377C45.9887 19.4377 45.4032 20.1197 45.36 20.9285H48.2726Z" fill="#F26727"/>
<path d="M50.1869 21.5526C50.1869 19.6154 51.3322 18.2721 53.148 18.2721C54.6603 18.2721 55.7098 19.1773 55.811 20.5523H54.4147C54.3014 19.9406 53.8697 19.4777 53.1682 19.4777C52.2684 19.4777 51.6668 20.2465 51.6668 21.5264C51.6668 22.8243 52.2563 23.6041 53.1682 23.6041C53.809 23.6041 54.2893 23.2114 54.4147 22.5294H55.811C55.7058 23.8755 54.7142 24.8221 53.1561 24.8221C51.3039 24.8234 50.1869 23.4732 50.1869 21.5526Z" fill="#F26727"/>
<path d="M59.653 19.5107H58.4308V22.7912C58.4308 23.3947 58.7249 23.5269 59.0932 23.5269C59.2753 23.5269 59.4399 23.4897 59.5208 23.4691L59.7664 24.6388C59.6085 24.6925 59.3225 24.7752 58.907 24.7876C57.8103 24.8207 56.9617 24.2337 56.9698 23.0406V19.5121H56.0902V18.3548H56.9698V16.8351H58.4308V18.3548H59.653V19.5107Z" fill="#F26727"/>
</svg>
