<svg width="96" height="94" viewBox="0 0 96 94" fill="none" xmlns="http://www.w3.org/2000/svg">
<path d="M21.0186 68.2231C15.6985 61.7382 12.8941 53.542 13.1247 45.1461C13.3806 35.8316 17.249 27.1722 24.0169 20.7668C30.7847 14.3613 39.6399 10.9716 48.9564 11.2294C58.2709 11.4852 66.9303 15.3536 73.3358 22.1215C79.7412 28.8893 83.129 37.7465 82.8732 47.061C82.66 54.8056 79.9738 62.0696 75.1033 68.07L73.0993 66.4439C77.6093 60.8874 80.0959 54.1603 80.2935 46.9912C80.53 38.3647 77.3941 30.1627 71.4616 23.8968C65.5291 17.629 57.5131 14.0474 48.8866 13.8109C40.2601 13.5725 32.0581 16.7103 25.7922 22.6428C19.5244 28.5754 15.9427 36.5914 15.7063 45.2179C15.4931 52.9916 18.0882 60.5812 23.0149 66.5854L21.0186 68.2231Z" fill="#3C67B1"/>
<path d="M24.0673 65.721C19.348 59.9688 16.8614 52.7009 17.0668 45.2547C17.2936 36.9925 20.724 29.3138 26.7263 23.6313C32.7286 17.9488 40.5857 14.9447 48.8478 15.1734C57.11 15.4002 64.7887 18.8306 70.4712 24.8329C76.1537 30.8352 79.1578 38.6923 78.9291 46.9544C78.7411 53.823 76.3573 60.2653 72.0392 65.5873L71.3376 65.0175C75.5297 59.8525 77.8418 53.5982 78.026 46.9292C78.2469 38.9074 75.3301 31.281 69.8142 25.455C64.2984 19.6291 56.8444 16.2975 48.8246 16.0766C40.8047 15.8575 33.1783 18.7725 27.3504 24.2883C21.5225 29.8041 18.1929 37.26 17.9719 45.2799C17.7742 52.509 20.1872 59.5656 24.7669 65.1474L24.0673 65.721Z" fill="#F26727"/>
<path d="M60.8912 32.2946C60.8912 32.7888 60.8757 33.2714 60.8447 33.7385C60.8137 34.2017 60.7149 34.8141 60.5482 35.5739C60.3796 36.3336 60.1586 37.0313 59.8834 37.667C59.6102 38.3027 59.2051 38.9694 58.6702 39.6671C58.1372 40.3668 57.5015 40.9463 56.7689 41.4134C56.0363 41.8766 55.1041 42.2642 53.9761 42.5762C52.8462 42.8863 51.5787 43.0414 50.1755 43.0414H39.0314C38.2077 43.0414 37.539 42.363 37.539 41.5258V37.2581H37.5449C39.2678 37.2581 41.4385 37.2581 43.708 37.2561H50.4817C51.348 37.2561 52.005 36.822 52.3287 36.0351C52.6485 35.2599 52.4973 34.4982 51.8965 33.8838C49.7704 31.7112 47.6191 29.5309 45.6132 27.4978C45.1519 27.0288 44.5763 26.8369 43.9484 26.9435C43.1847 27.0733 42.6537 27.5249 42.4114 28.2536C42.1634 29.0114 42.3281 29.713 42.8882 30.2886C43.71 31.1278 44.5375 31.9651 45.4058 32.8392L45.8787 33.3198H37.539L37.5371 22.6448C37.539 21.8095 38.2058 21.1331 39.0275 21.1331H50.1774C53.1989 21.1331 55.7417 22.1331 57.8019 24.1332C59.8621 26.1295 60.8912 28.8525 60.8912 32.2946Z" fill="#3C67B1"/>
<path d="M60.8912 54.9743C60.8912 55.4685 60.8757 55.9511 60.8447 56.4181C60.8137 56.8814 60.7149 57.4938 60.5482 58.2535C60.3796 59.0133 60.1586 59.711 59.8834 60.3467C59.6101 60.9824 59.2051 61.6491 58.6702 62.3468C58.1372 63.0465 57.5015 63.6259 56.7689 64.0911C56.0363 64.5543 55.1041 64.9419 53.9761 65.254C52.8462 65.564 51.5786 65.7191 50.1755 65.7191H39.0314C38.2077 65.7191 37.539 65.0408 37.539 64.2035V62.0406L37.5352 45.3206C37.5371 44.4853 38.2038 43.8089 39.0256 43.8089H50.1755C53.197 43.8089 55.7397 44.8089 57.8 46.809C58.6857 47.6696 59.3814 48.6619 59.8873 49.7879C58.3174 49.7879 56.3735 49.7879 54.3172 49.7898H46.902C46.0357 49.7898 45.3787 50.222 45.0531 51.0108C44.7333 51.7861 44.8864 52.5497 45.4872 53.1621C47.5997 55.3192 49.7568 57.5054 51.7705 59.5482C52.1504 59.9339 52.6058 60.1315 53.1039 60.1315C53.2125 60.1315 53.3229 60.1199 53.4353 60.1025C54.199 59.9726 54.73 59.521 54.9723 58.7904C55.2203 58.0345 55.0556 57.3329 54.4936 56.7573C53.6718 55.9162 52.8442 55.0789 51.974 54.2048L51.505 53.7281H60.8408C60.8757 54.1331 60.8912 54.5498 60.8912 54.9743Z" fill="#3C67B1"/>
<path d="M22.5769 68.9305L29.7382 66.3451L30.9592 67.853L26.9783 74.3611L25.9356 73.0742L27.9047 69.9849C28.1664 69.5934 28.4552 69.1767 28.7711 68.7348C29.087 68.2929 29.4358 67.8123 29.8215 67.2909L30.0367 67.5564C29.4494 67.8278 28.9087 68.0758 28.4125 68.3007C27.9183 68.5255 27.4551 68.7251 27.0248 68.8995L23.6099 70.2058L22.5769 68.9305ZM24.8406 69.1108L25.7438 68.3782L28.1741 71.3784L27.271 72.111L24.8406 69.1108Z" fill="#F26727"/>
<path d="M31.3391 78.0222C30.8604 77.6752 30.4979 77.3031 30.2537 76.9039C30.0095 76.5046 29.8933 76.0918 29.9068 75.6674C29.9204 75.241 30.0716 74.8185 30.3642 74.3979L31.5368 75.2468C31.403 75.4522 31.3391 75.6616 31.343 75.8728C31.3468 76.0841 31.4108 76.2876 31.5348 76.4814C31.6589 76.6752 31.8333 76.8535 32.0562 77.0163C32.2713 77.1733 32.4845 77.2779 32.6899 77.3322C32.8973 77.3865 33.0853 77.3903 33.2559 77.3419C33.4264 77.2954 33.564 77.1985 33.6706 77.0512C33.7675 76.9174 33.8082 76.7779 33.7966 76.6306C33.785 76.4833 33.7268 76.3224 33.6222 76.148C33.5175 75.9736 33.3722 75.7798 33.1842 75.5685L32.657 74.9503C32.2267 74.458 31.9651 73.9793 31.8701 73.5141C31.7752 73.0509 31.8798 72.6071 32.1841 72.1846C32.438 71.8319 32.7558 71.5935 33.1376 71.4675C33.5194 71.3415 33.9284 71.326 34.3683 71.419C34.8083 71.5121 35.2444 71.7156 35.6766 72.0276C36.1146 72.3435 36.4421 72.6943 36.6592 73.0781C36.8762 73.4618 36.9809 73.8533 36.9693 74.2487C36.9596 74.646 36.8297 75.0239 36.5836 75.3805L35.4227 74.5413C35.5777 74.2836 35.6107 74.02 35.5273 73.7525C35.442 73.4851 35.2482 73.2409 34.9459 73.0219C34.7424 72.8746 34.5466 72.7777 34.3567 72.7311C34.1668 72.6827 33.9962 72.6827 33.8431 72.7292C33.69 72.7757 33.566 72.8668 33.471 72.9986C33.3702 73.1362 33.3295 73.2816 33.345 73.4347C33.3605 73.5878 33.4206 73.7467 33.5214 73.9134C33.6241 74.0801 33.7501 74.2506 33.9013 74.4231L34.3451 74.9406C34.5641 75.1867 34.7482 75.4348 34.8974 75.6887C35.0467 75.9406 35.1494 76.1926 35.2095 76.4407C35.2696 76.6907 35.2754 76.9388 35.225 77.1849C35.1746 77.431 35.0641 77.6733 34.8936 77.9097C34.6358 78.2664 34.3199 78.5125 33.9458 78.6462C33.5737 78.78 33.1648 78.7955 32.7209 78.6927C32.281 78.5939 31.8197 78.3691 31.3391 78.0222Z" fill="#F26727"/>
<path d="M39.3493 82.1503C38.7872 81.9623 38.3318 81.7162 37.9771 81.408C37.6224 81.0999 37.3899 80.7413 37.2755 80.3324C37.1612 79.9234 37.1786 79.4738 37.3317 78.9854L38.7058 79.4428C38.6399 79.6792 38.6419 79.8963 38.7078 80.0979C38.7737 80.2975 38.8958 80.4719 39.0721 80.6212C39.2485 80.7704 39.4675 80.8886 39.7292 80.9758C39.9811 81.0611 40.2156 81.0979 40.4288 81.0882C40.642 81.0786 40.8242 81.0243 40.9734 80.9293C41.1226 80.8344 41.2254 80.6987 41.2816 80.5281C41.3339 80.3731 41.332 80.2258 41.2758 80.0882C41.2196 79.9506 41.1168 79.8149 40.9657 79.6792C40.8145 79.5436 40.6168 79.404 40.3745 79.2587L39.6865 78.8265C39.1283 78.4854 38.7349 78.1074 38.5043 77.6927C38.2736 77.2779 38.2407 76.8244 38.4074 76.3302C38.545 75.9174 38.7756 75.5957 39.1031 75.3612C39.4287 75.1266 39.8164 74.989 40.2641 74.9464C40.7118 74.9038 41.1885 74.9677 41.6944 75.1363C42.206 75.3069 42.6227 75.5433 42.9464 75.8437C43.2701 76.1441 43.4852 76.4872 43.5937 76.869C43.7023 77.2508 43.6926 77.6501 43.5647 78.0648L42.206 77.6113C42.2758 77.3186 42.2293 77.0589 42.0684 76.8283C41.9076 76.5977 41.6498 76.4232 41.2951 76.305C41.0587 76.2255 40.8416 76.1926 40.6459 76.2023C40.4501 76.2139 40.2873 76.2643 40.1555 76.3535C40.0237 76.4426 39.9327 76.5666 39.8803 76.7217C39.8261 76.8826 39.8299 77.0357 39.89 77.1752C39.9501 77.3167 40.0547 77.4504 40.202 77.5803C40.3493 77.7101 40.5218 77.8342 40.7176 77.9524L41.2971 78.3129C41.58 78.4815 41.8301 78.6637 42.0471 78.8614C42.2642 79.0571 42.4386 79.2664 42.5704 79.4854C42.7022 79.7064 42.7817 79.9409 42.8088 80.1909C42.8359 80.4409 42.803 80.7045 42.7099 80.9816C42.5704 81.4003 42.3437 81.7278 42.0277 81.9681C41.7118 82.2085 41.3261 82.3441 40.8726 82.379C40.4172 82.412 39.9094 82.3364 39.3493 82.1503Z" fill="#F26727"/>
<path d="M48.751 83.5613C48.1501 83.5768 47.623 83.4818 47.1675 83.2744C46.714 83.067 46.3574 82.7705 46.0977 82.3829C45.8399 81.9953 45.7023 81.5418 45.6888 81.0204L45.5667 76.3496L47.0474 76.3108L47.1656 80.8595C47.1733 81.1386 47.2412 81.3867 47.373 81.5999C47.5028 81.8131 47.685 81.9798 47.9156 82.098C48.1463 82.2162 48.4118 82.2705 48.7141 82.2627C49.0203 82.255 49.2839 82.1852 49.5087 82.0554C49.7336 81.9255 49.9041 81.7511 50.0223 81.5301C50.1406 81.3092 50.1948 81.0592 50.189 80.7801L50.0708 76.2294L51.5573 76.1907L51.6794 80.8615C51.693 81.3828 51.5806 81.8441 51.3422 82.2434C51.1038 82.6445 50.7627 82.9585 50.3189 83.1891C49.8751 83.4217 49.3518 83.5458 48.751 83.5613Z" fill="#F26727"/>
<path d="M55.5537 82.5321L53.0226 75.8011L55.6914 74.7972C56.205 74.6034 56.6798 74.5297 57.112 74.5723C57.5442 74.615 57.9202 74.7661 58.2361 75.02C58.552 75.2759 58.7943 75.6267 58.9629 76.0724C59.1295 76.5143 59.1741 76.9349 59.0985 77.3322C59.0229 77.7295 58.8311 78.0822 58.5249 78.3943C58.2186 78.7063 57.8039 78.9602 57.2806 79.156L55.4878 79.8304L55.0673 78.7141L56.6914 78.1036C56.9647 78.0008 57.1779 77.8749 57.331 77.7256C57.4841 77.5764 57.5771 77.4078 57.612 77.2198C57.6469 77.0318 57.6236 76.8264 57.5403 76.6073C57.455 76.3806 57.3368 76.2081 57.1856 76.0879C57.0345 75.9678 56.8523 75.8999 56.6391 75.8864C56.4259 75.8728 56.1798 75.9174 55.9026 76.022L54.8483 76.4194L56.9492 82.0069L55.5537 82.5321ZM59.3544 81.1037L56.5713 78.6598L58.0772 78.0939L60.8932 80.5262L59.3544 81.1037Z" fill="#F26727"/>
<path d="M63.6336 78.9389L59.4376 73.0994L63.4514 70.2155L64.1724 71.2194L61.3699 73.2331L62.3719 74.6285L64.9612 72.768L65.6686 73.7525L63.0793 75.6131L64.124 77.0667L66.9303 75.0491L67.6513 76.053L63.6336 78.9389Z" fill="#F26727"/>
<path d="M65.5775 68.0312L71.1399 72.5897L70.1941 73.7428L64.6317 69.1844L65.5775 68.0312ZM71.8143 71.764L70.6224 73.2195L69.6436 72.4172L70.791 71.0179C71.0895 70.6535 71.2755 70.2949 71.3472 69.9442C71.4189 69.5934 71.3705 69.2464 71.2038 68.9034C71.0371 68.5603 70.7484 68.2212 70.3375 67.8839C69.9285 67.5487 69.5409 67.3355 69.1746 67.2386C68.8083 67.1436 68.4595 67.1649 68.13 67.3025C67.8005 67.4401 67.4885 67.6901 67.1919 68.0526L66.0175 69.4848L65.0387 68.6824L66.2694 67.1824C66.7326 66.6164 67.2423 66.223 67.7986 65.9982C68.3548 65.7753 68.9304 65.723 69.5254 65.8451C70.1204 65.9652 70.7057 66.2618 71.2813 66.7327C71.8589 67.2056 72.264 67.7231 72.5004 68.2832C72.7349 68.8433 72.7969 69.4209 72.6865 70.0139C72.5721 70.6128 72.2833 71.1942 71.8143 71.764Z" fill="#F26727"/>
</svg>
